<svg id="Calque_4" data-name="Calque 4" xmlns="http://www.w3.org/2000/svg" xmlns:xlink="http://www.w3.org/1999/xlink" viewBox="0 0 1055.95 616.47"><defs><style>.cls-1{fill:url(#Dégradé_sans_nom_8);}.cls-2{fill:url(#Dégradé_sans_nom_2);}.cls-3{fill:url(#Dégradé_sans_nom_17);}.cls-4{fill:url(#Dégradé_sans_nom_17-2);}.cls-5{fill:url(#Dégradé_sans_nom_17-3);}.cls-6{fill:url(#Dégradé_sans_nom_17-4);}.cls-7{fill:url(#Dégradé_sans_nom_17-5);}.cls-8{fill:url(#Dégradé_sans_nom_17-6);}.cls-9{fill:url(#Dégradé_sans_nom_17-7);}.cls-10{fill:url(#Dégradé_sans_nom_17-8);}.cls-11{fill:url(#Dégradé_sans_nom_17-9);}.cls-12{fill:url(#Dégradé_sans_nom_17-10);}.cls-13{fill:url(#Dégradé_sans_nom_17-11);}</style><linearGradient id="Dégradé_sans_nom_8" x1="667.86" y1="310.56" x2="918.55" y2="310.56" gradientUnits="userSpaceOnUse"><stop offset="0" stop-color="#150b03"/><stop offset="1" stop-color="#915e36"/></linearGradient><linearGradient id="Dégradé_sans_nom_2" x1="174.01" y1="467.32" x2="525.69" y2="467.32" gradientTransform="translate(-22.03 -26.85) rotate(4.71)" gradientUnits="userSpaceOnUse"><stop offset="0" stop-color="#915e36"/><stop offset="1" stop-color="#150b03"/></linearGradient><linearGradient id="Dégradé_sans_nom_17" x1="157.46" y1="257.58" x2="932.92" y2="305.58" gradientUnits="userSpaceOnUse"><stop offset="0" stop-color="#986338"/><stop offset="0.41" stop-color="#4f331c"/><stop offset="1" stop-color="#915e36"/></linearGradient><linearGradient id="Dégradé_sans_nom_17-2" x1="156.54" y1="272.49" x2="932" y2="320.48" xlink:href="#Dégradé_sans_nom_17"/><linearGradient id="Dégradé_sans_nom_17-3" x1="147.95" y1="411.18" x2="923.41" y2="459.18" xlink:href="#Dégradé_sans_nom_17"/><linearGradient id="Dégradé_sans_nom_17-4" x1="150" y1="378.14" x2="925.46" y2="426.14" xlink:href="#Dégradé_sans_nom_17"/><linearGradient id="Dégradé_sans_nom_17-5" x1="53.35" y1="373.93" x2="1099.87" y2="438.71" xlink:href="#Dégradé_sans_nom_17"/><linearGradient id="Dégradé_sans_nom_17-6" x1="-342.39" y1="-45.09" x2="-259.88" y2="-23.96" gradientTransform="matrix(-0.73, -0.68, -0.78, 0.83, 373.87, 128.23)" xlink:href="#Dégradé_sans_nom_17"/><linearGradient id="Dégradé_sans_nom_17-7" x1="-341.73" y1="-47.63" x2="-259.23" y2="-26.5" gradientTransform="matrix(-0.73, -0.68, -0.78, 0.83, 373.87, 128.23)" xlink:href="#Dégradé_sans_nom_17"/><linearGradient id="Dégradé_sans_nom_17-8" x1="-341.96" y1="-46.76" x2="-259.45" y2="-25.63" gradientTransform="matrix(-0.73, -0.68, -0.78, 0.83, 373.87, 128.23)" xlink:href="#Dégradé_sans_nom_17"/><linearGradient id="Dégradé_sans_nom_17-9" x1="-334.39" y1="-66.74" x2="-251.89" y2="-45.61" gradientTransform="matrix(-0.73, -0.68, -0.78, 0.83, 373.87, 128.23)" xlink:href="#Dégradé_sans_nom_17"/><linearGradient id="Dégradé_sans_nom_17-10" x1="-334.13" y1="-67.77" x2="-251.63" y2="-46.63" gradientTransform="matrix(-0.73, -0.68, -0.78, 0.83, 373.87, 128.23)" xlink:href="#Dégradé_sans_nom_17"/><linearGradient id="Dégradé_sans_nom_17-11" x1="-333.74" y1="-69.28" x2="-251.24" y2="-48.14" gradientTransform="matrix(-0.73, -0.68, -0.78, 0.83, 373.87, 128.23)" xlink:href="#Dégradé_sans_nom_17"/></defs><title>SsCanardPlan de travail 16</title><path class="cls-1" d="M748.9,305.15c-.74.11-76.1-7.13-79.94-6.86-.77.72-.77,1.87-1.1,2.71,15.67,1.5,54,6.09,54,6.09h.77c2.4.44,5.31.37,7.35,1.16h.77a109,109,0,0,1,13.93,1.93H745a15.9,15.9,0,0,1,5.8.77h.39c2.52,0,2.45.32,5,.39h.39c1.23.57,3.61,0,4.64.77a8.36,8.36,0,0,1,3.48.39,27.94,27.94,0,0,1,7.74,1.16c3.14-.43,7.22.42,11.61,1.16,2.11,0,4.13,0,5.42.77h.39c.33-1.13,1.25.23,1.93,0a11.87,11.87,0,0,1,5,.77c2.66-.48,6.13.68,8.51.77a25,25,0,0,1,7,.77,67.05,67.05,0,0,1,7.74.77c6,.77,10.35.87,15.48,1.16h3.09c6.67,0,10.88-.1,15.09-.39h2.32c4.65-.82,9.91-1.12,13.15-2.32h.39a38.59,38.59,0,0,1,4.26-1.16c2.64-.71,5.44-1.27,8.13-1.93a21.13,21.13,0,0,1,5.42-1.55h.39c3.78-1.77,9-2.13,12.38-4.26h.39c2.76-2.14,6.12-3.68,9.29-5.42h.39c2.38-.46.67,4.85,1.16,7.74.21,1.21,1.47,1.72.77,2.71a7.24,7.24,0,0,1,.39,3.1c0,1.65.65,2.71.39,4.64v.39c.89.92.14,3.47.39,5-.22,1,1.59,2,.39,2.71v.77c.87.17.16,1.91.39,2.71,1.69,4.9-.61,8.42,1.55,13.16L918,335.71c.26-3.43,1.34-5.7-.39-8.51-.88-.54-.14-2.69-.39-3.87-2-4.28-.35-9.18-.77-13.93-.1-1.09-1-1.78-1.16-2.71a43.25,43.25,0,0,1,0-12.38c.19-1.39,1.18-2.85,1.16-4.26-.06-6.12-5.57-9.17-11.22-10.83-1.08-2.79-4.68-3.06-7.74-3.87-2,1.1-3,3.17-4.64,4.64.65,10.25-2.6,17.27-1.16,26.31-10.41,4.54-23.11,6.81-36.76,8.12-1,.64-4.76.64-5.8,0-5.11,1.67-10.89.08-15.86.77ZM911,287.74c-2.91-3.15-5.18-6.95-11.61-6.58-3.44,5.54-.68,17.82-2.32,23.21,7-1.39,11.1-5.67,14.7-10.45C912.38,292.55,912.78,288,911,287.74Z"/><path class="cls-2" d="M355.58,468.65c2.83-.19,27.73,5.55,54.94,9,4,.51,9.14-.91,13.08-.43,15.19,1.85,34.53,5.27,40,4l-.81-.07c-5.26-.45-5.07-1.08-10.44-1.67l-.81-.07C449,478,444,478.79,441.95,477a17.54,17.54,0,0,1-7.21-1.41c-6-.71-11.47-1.81-16-3.76-6.64.35-15-2.12-24.06-4.42-4.42-.26-8.62-.71-11.19-2.55l-.81-.07c-.88,2.31-2.56-.7-4-.33-4.09-.3-7.75-1-10.38-2.48-5.65.55-12.69-2.48-17.65-3.08-5.36-.47-10.41-1.21-14.42-2.82-6.44-.55-12.19-2.25-16-2.95-12.42-2.65-21.47-3.61-32.14-5.09l-6.47-.53c-13.93-1.19-22.76-1.66-31.6-1.79l-4.85-.4c-9.87.9-20.9.63-27.89,2.59l-.81-.07c-2.71.95-6.13,1.05-9.09,1.69-5.64,1-11.58,1.72-17.31,2.64a44.3,44.3,0,0,1-11.59,2.3l-.81-.07c-8.2,3-19.09,2.91-26.61,6.76l-.81-.07c-6.14,4-13.43,6.63-20.34,9.72l-.81-.07c-5,.56-.56-10.25-1.09-16.37-.22-2.57-2.78-3.85-1.15-5.79-.33-2-.86-3.78-.28-6.53.22-3.45-.89-5.77,0-9.77l.07-.81c-1.7-2.07.31-7.28.06-10.58.63-2.11-3-4.39-.34-5.73l.13-1.62c-1.78-.5,0-4-.34-5.73-2.7-10.53,2.73-17.5-1-27.76l-6.58,20.62c-1.13,7.13-3.78,11.67-.66,17.85,1.75,1.27-.16,5.65.14,8.15,3.39,9.29-.85,19.23-.78,29.24,0,2.29,1.77,3.9,2,5.86.79,8.24-.5,18.58-2.13,25.87-.64,2.86-2.95,5.76-3.16,8.69C113,509.19,124,516.5,135.5,521c1.78,6,9.25,7.2,15.5,9.42,4.35-2,6.86-6.1,10.5-8.9.41-21.53,8.41-35.65,7-54.78C191,459,217.92,456.42,246.68,456c2.3-1.16,10.05-.52,12.13,1,11-2.62,22.78,1.71,33.28,1.11Z"/><path class="cls-3" d="M274.72,243.68c-9.6,10.08-16.8,24.48-20.16,37.44a132.23,132.23,0,0,1-13.68-.24c13.44-36.24,28.08-78.72,37.68-107.76.72-2.16,0-5.52-2.16-8.4,10.56,1.92,19.92,3.36,27.36,3.36,19.92,0,28.08-11.76,28.08-20.16a9.94,9.94,0,0,0-1.44-5.52c-6.24,1.92-15.84,3.12-26.64,3.12-32.4,0-77.52-6.24-96.48-6.24-39.84,0-62.4,37.92-62.4,70.8,0,24,13.2,44.88,41.28,44.88,26.88,0,41.28-29.76,41.28-52.56,0-12.72-4.8-23-14.88-23a21.8,21.8,0,0,0-8.64,1.92c.24,2.4.48,6.48.48,11.28,0,16.08-2.88,42-18.24,54-13-4.56-18.24-19.2-18.24-36,0-25.2,12.24-53.76,30-61,20.88,2.64,43,7.68,62.4,12-1.92,4.56-3.84,9.84-6,15.84-9.6,28.08-23.28,66.72-36.72,102-14.88-1.44-28.56-2.88-35.76-2.88-22.08,0-29.76,11.28-29.76,20.64a15.29,15.29,0,0,0,4.56,11.28c15.84-13.68,36-16.08,56.16-16.8-4.8,12.48-9.6,24.48-13.92,35-5.28,13-18.24,41.52-29.76,46.8-10.32-7-15.84-16.08-15.84-25a21.42,21.42,0,0,1,16.8-20.88c.24-7-3.6-8.16-10.8-8.16-10.8,0-28.32,9.12-28.32,26.4,0,21.12,22.32,38.4,41.28,38.4,16.32,0,32.88-16.32,47.52-49.68,5-11.28,11-26.64,17.52-43.68a151.94,151.94,0,0,0,15.36-1.44c-.24,2.4-.48,5-.48,7.2,0,8.16,2.64,13.68,8.4,13.68a6,6,0,0,0,1.92-.24c1-10.56.72-16.8,4.08-25.44C276.64,278,282.64,263.6,282.64,254,282.64,249.44,281.21,246.32,274.72,243.68Z"/><path class="cls-4" d="M492.57,317c-.15,1.73-.23,3.39-.23,5,0,12.42,11.52,20.7,25.56,20.7,12.24,0,27.9-20.7,27.9-28.62,0-1.8-1.08-2.16-2.52-2-5.94,10.26-16,20.34-28.08,21.78-4.5-2.16-6.3-5.76-6.3-11,0-1.62.18-3.42.36-5.4a17,17,0,0,0,5,.72c22.14,0,40.5-36.54,40.5-51.66,0-13.14-10.08-17.64-19.26-17.64-8.28,0-14.22,3.78-18.9,9.18-9.87,11.14-17.87,29.22-21.75,45.3-8.91,15.19-18.7,27.91-27.39,32.1-.72-7,7.92-23.58,15.3-38.34,8.1-16.38,14-30.42,14-36.54,0-8.28-8.82-11.34-15.12-11.34-11,0-22.86,22.86-35.82,48.24,6.12-15.12,13.68-32.94,13.68-39.6,0-7.92-7.92-10.8-13.5-10.8-10.44,0-21.06,22.86-35.82,49.14,7.74-17.82,13.14-31.32,13.14-36.36,0-6.3-4-9.36-10.08-9.36-4.68,0-9.9,1.08-15.3.9a4.79,4.79,0,0,0-.54,2.16c0,1.8,1.08,3.42,5,3.42a27.32,27.32,0,0,0,7.92-1.44,146.57,146.57,0,0,1-6.92,18.83c-11.48,25.77-28.42,54.52-42.21,61.09.36-4.86,5-15.48,10.26-26.64,6.48-13.86,13.5-28.8,13.5-34.56,0-8.28-4.32-8.28-17.64-12.6a2.49,2.49,0,0,1-1.62-2.7,9,9,0,0,1,1.26-4.5A184.24,184.24,0,0,1,381.64,230a10.2,10.2,0,0,0-8.82-5.22c-6.84,0-14.22,7.74-14.22,26.82,0,4.06.46,7,1.81,9.53C346.73,294,319.51,331,303.16,334.58c-5.58-2.16-7.74-5.94-7.74-11.7,0-1.62.18-3.42.36-5.4a17,17,0,0,0,5,.72c22.14,0,40.5-36.54,40.5-51.66,0-13.14-10.08-17.64-19.26-17.64-8.28,0-14.22,3.78-18.9,9.18-14,15.84-24.3,45.72-24.3,63.9,0,12.42,11.52,20.7,25.56,20.7,31.5,0,55.68-61,59.7-77.26a28.2,28.2,0,0,0,2.58,1.85c2.16,1.44,3.78,2.52,3.78,5,0,5.58-25.74,47.16-25.74,56,0,7.56,5.94,14.4,13,14.4,9.73,0,20.72-12.85,30-28-3.15,9.3-5.3,16.92-5.3,19.86,0,5.4,3.6,6.48,8.28,6.48,1.44,0,3.06-.18,4.68-.18,8.82-25.2,43.2-88,49.68-86.94.36,5.58-7.74,21.6-14.94,39.06-6.48,16-13.32,35.82-13.32,42.3,0,4.5,5.4,5.76,10.26,5.76a25.31,25.31,0,0,0,4.14-.36c10.08-28.44,43-85.68,49.5-84.6.36,5-7.74,19.8-15.48,35.46-7.74,15.3-13.68,30.24-13.68,36.54,0,8.1,6.48,14.58,12.78,14.58C473.41,342.68,483.7,331.11,492.57,317Zm48.55-61.28c.9.72,1.26,2.16,1.26,4.14,0,13.14-15.84,49.86-32,52.56C515.38,290.3,532.66,256.28,541.12,255.74Zm-213.48,0c.9.72,1.26,2.16,1.26,4.14,0,13.14-15.84,49.86-32,52.56C301.9,290.3,319.18,256.28,327.64,255.74Z"/><path class="cls-5" d="M610.46,358.6c0-12.6-9.9-23.94-23.4-23.94-26.28,0-58.5,63.54-67.14,108.36-26.64,0-36.9-5.22-36.9-27.72,0-21.42,15.84-55.26,28.62-60.12,1.8.9,2.7,3.42,2.7,7.2,0,14-12.06,44.28-19.62,54.54A4.21,4.21,0,0,0,499,420c9,0,28.08-21.06,28.08-51.84,0-10.44-6.12-18.72-18.54-18.72-25.2,0-43.2,37.62-43.2,65.16,0,25.92,18.36,35.28,49.14,35.28h4.14a95.39,95.39,0,0,0-1.08,13.86c0,15.84,7,26.46,18.72,26.46,7,0,13-6.48,18.54-16.2-16.2,40.5-19.62,48.78-30.78,56.34-7-4.86-9.9-9.9-9.9-14.22,0-5.4,4.68-9.36,12.42-11.16,0-5.58-2.7-6.12-8.1-6.12-8.1,0-20.88,4.5-20.88,17.46,0,12.78,14.58,22.14,31.14,22.14,9.9,0,22.86-12.24,30.24-30.6,17.1-43,19.26-52,19.26-55.8,0-3.24-3.24-4-6.84-4a48.35,48.35,0,0,0-8.1.9c-6.3,16.2-16.2,32-24.3,32.4-2.52-1.62-3.6-5.76-3.6-11.7a105.33,105.33,0,0,1,3.06-22.32C587.78,436.36,610.46,391.72,610.46,358.6Zm-18.72-15.84C593.9,344,595,348,595,353.56c0,22.32-17.46,71.82-54.54,85.68C550.7,400.36,574.46,347.8,591.74,342.76Z"/><path class="cls-6" d="M893.06,383.08c-1.8-7.56-6.12-14.58-12.78-14.58-9.36,0-14.76,10.44-26.46,40.14a4,4,0,0,0-.26.68c-14.1,31.88-40,66.45-55.72,69.87-5.58-2.16-7.74-5.94-7.74-11.7,0-1.62.18-3.42.36-5.4a17,17,0,0,0,5,.72c22.14,0,40.5-36.54,40.5-51.66,0-13.14-10.08-17.64-19.26-17.64-8.28,0-14.22,3.78-18.9,9.18-10,11.26-18,29.6-21.87,45.8-9.11,15.54-18.9,28.45-26.37,31.42,3.6-11.34,10.62-28.08,17.1-44.64,11.34-29,21.6-54.36,28.8-72.36,3.78-9.72,8.1-18.36,8.1-22,0-4-7.38-4.32-13.5-4.14-8.1,18-20.52,48.24-30.42,72.9-.72-10.26-8.46-16-14.76-16-12.24,0-22.32,19.44-30.6,40.5-.95,2.37-1.85,4.78-2.69,7.2-9.91,18.09-21.32,34-31.15,38.69.36-4.86,5-15.48,10.26-26.64,6.48-13.86,13.5-28.8,13.5-34.56,0-8.28-4.32-8.28-17.64-12.6a2.49,2.49,0,0,1-1.62-2.7,9,9,0,0,1,1.26-4.5,184.21,184.21,0,0,1,14.58-24.48A10.2,10.2,0,0,0,692,369.4c-6.84,0-14.22,7.74-14.22,26.82,0,4,.44,6.94,1.76,9.42-13.13,31.48-32.14,60-46,71.75,2.7-8.64,9.9-24.12,15.66-39.42,5.94-15.66,11.16-31,11.16-35.46,0-6.66-5.76-7.2-13.14-7-1.62,4.14-3.42,9-5.4,13.86-.9-10.08-8.46-15.66-14.76-15.66-12.24,0-22.32,19.44-30.6,40.5-5.4,13.5-9.36,28.44-9.36,38.7,0,8.28,8.1,14.4,14.4,14.4,8.64,0,16.74-15.66,26.64-35.28-3.42,10.44-7.56,20-7.56,24.48,0,4.86,5.22,10.8,10.62,10.8,9.9,0,22.5-14.94,34.2-35.64,6.5-11.89,15.78-32.28,17.91-41.65a28.1,28.1,0,0,0,2.61,1.87c2.16,1.44,3.78,2.52,3.78,5,0,5.58-25.74,47.16-25.74,56,0,7.56,5.94,14.4,13,14.4,9.59,0,20.41-12.49,29.57-27.32A67.83,67.83,0,0,0,705,472.89c0,8.28,7.56,14.94,13.5,14.94,8.64,0,17.64-14.22,27-34.38-3.78,11-7.38,17.46-7.38,23.58,0,5,4.68,10.26,9.54,10.26,7.88,0,17.54-11.39,26.12-25.31-.13,1.6-.2,3.15-.2,4.61,0,12.42,11.52,20.7,25.56,20.7,9.78,0,18.85-5.88,26.84-14.48.16,6.77,6.11,14.48,19.42,14.48,15.66,0,24.84-16.56,24.84-37.62.18-16.92-5.76-35.82-5.76-43.2C864.44,395.86,882.44,387.94,893.06,383.08ZM627.92,440.85c-9.18,18.72-19.08,35.1-25.56,38.16-.9-4.86,2.7-20.88,9.18-36.72,12.24-30.24,16.74-37.44,20.34-37.44,3.06,0,5.94,3.6,5.76,9.72C637.64,421.24,632.25,431.5,627.92,440.85Zm117.9,0c-5.58,12.78-16.74,36.72-26.46,38.16-.9-4.86,3.42-20.7,12.42-42.48,9.9-24.48,14.4-31.68,18-31.68,3.06,0,5.94,3.6,5.76,9.72C755.54,421.24,750,431.32,745.82,440.85Zm76.5-40.5c.9.72,1.26,2.16,1.26,4.14,0,13.14-15.84,49.86-32,52.56C796.58,434.92,813.86,400.9,822.32,400.36Zm21.6,79.2c-3.29-2.08-8.23-9-11.48-14.61,11-14.86,19.36-33.83,23.67-46.16C854.76,455.92,849.61,474.23,843.92,479.55Z"/><path class="cls-7" d="M458,379.19c-.94-4-3.21-7.65-6.71-7.65-4.91,0-7.75,5.48-13.89,21.07a2.19,2.19,0,0,0-.14.36c-7.4,16.73-21,34.87-29.24,36.67-2.93-1.13-4.06-3.12-4.06-6.14,0-.85.09-1.79.19-2.83a9,9,0,0,0,2.65.38C418.4,421,428,401.86,428,393.92c0-6.9-5.29-9.26-10.11-9.26a12.63,12.63,0,0,0-9.92,4.82c-5.24,5.91-9.46,15.53-11.47,24-4.78,8.16-9.92,14.94-13.85,16.5,1.89-6,5.57-14.74,9-23.43,6-15.21,11.34-28.53,15.12-38,2-5.1,4.25-9.64,4.25-11.53,0-2.08-3.87-2.27-7.09-2.17-4.25,9.45-10.77,25.32-16,38.26-.38-5.39-4.44-8.41-7.75-8.41-6.42,0-11.72,10.2-16.06,21.26-2.83,7.09-4.91,14.93-4.91,20.31,0,4.35,4,7.84,7.09,7.84,4.53,0,9.26-7.46,14.17-18-2,5.76-3.87,9.16-3.87,12.38,0,2.64,2.46,5.38,5,5.38,4.14,0,9.21-6,13.72-13.3-.07.84-.12,1.67-.12,2.44,0,6.52,6,10.86,13.42,10.86,5.13,0,9.89-3.09,14.08-7.6.08,3.56,3.21,7.6,10.2,7.6,8.22,0,13-8.69,13-19.75.09-8.88-3-18.8-3-22.67C443,385.89,452.41,381.74,458,379.19Zm-77.28,30.33c-2.93,6.71-8.79,19.27-13.89,20-.47-2.55,1.8-10.87,6.52-22.3,5.2-12.85,7.56-16.63,9.45-16.63,1.61,0,3.12,1.89,3,5.1C385.81,399.22,382.88,404.51,380.71,409.51Zm40.15-21.26a2.72,2.72,0,0,1,.66,2.17c0,6.9-8.31,26.17-16.82,27.59C407.35,406.4,416.42,388.54,420.86,388.26Zm11.33,41.57c-1.73-1.09-4.32-4.71-6-7.68,5.79-7.8,10.16-17.73,12.42-24.2C437.88,417.42,435.18,427,432.19,429.83Z"/><g id="mplVoZ.tif"><path class="cls-8" d="M591.53,303.69a40.19,40.19,0,0,1,3.3-4.69c4.72-5,9.58-10,14.33-15a31.51,31.51,0,0,0,2.37-3.19l-.52-.55a9.31,9.31,0,0,0-2,1.13c-4.43,4.23-8.85,8.47-13.2,12.79-2.34,2.32-4.52,4.8-6.91,7.36-2.9-7.57-2.48-15.14.87-23.08a10.53,10.53,0,0,0-5.33,7.86,63.46,63.46,0,0,0-.25,8.51q.07,5.61.44,11.18c0,.61.68,1.52,1.2,1.56,7.28.64,14.6,1.52,21.91-2.77a20,20,0,0,0,3.39-2.51,185.66,185.66,0,0,1-19.28,2Z"/><path class="cls-9" d="M590.9,278.14c-1.67,7.37-3.52,14-1.74,21.15l17.56-17.8C601.09,281.27,595,283.62,590.9,278.14Z"/><path class="cls-10" d="M610.1,284.68l-16.65,17.79a6.19,6.19,0,0,0,1.46.24q7-.92,14-1.9c1-.14,2-.59,1.46-1.84-1.81-4.26-1.69-8.76-.08-13.48.09-.26.17-.53.26-.79Z"/><path class="cls-11" d="M660.44,295.22c-7.57,4.47-15.06,4.93-22.8,3,.75-.92,1.41-1.77,2.12-2.58,5.24-6,10.5-12,15.7-18a20.07,20.07,0,0,0,1.85-3.12l-.67-.48c-.8.72-1.67,1.38-2.4,2.16-4.5,4.87-8.92,9.82-13.49,14.62a76,76,0,0,1-5.78,5l-.82-.39,1.19-19.66a14.3,14.3,0,0,0-1.48,1.8c-2.24,3.9-3.67,8-3.47,12.25.17,3.73.57,7.42,1.07,11.07a2.28,2.28,0,0,0,1.71,1.69c5.29,0,10.61-.24,15.92-.42a13.54,13.54,0,0,0,10.09-4.34c.53-.58,1-1.24,1.46-1.86Z"/><path class="cls-12" d="M639.51,297.5c7.18,1.81,13.67-.84,20.72-2.8-4.73-4-3.83-9.89-3.9-15.18Z"/><path class="cls-13" d="M636.17,293.68l16.44-17.57-.14-.37c-2.54.6-5.11,1.6-7.6,1.69s-5-.69-7.7-1.11C636,282,635.29,287.56,636.17,293.68Z"/></g></svg>